<svg width="119" height="119" viewBox="0 0 119 119" fill="none" xmlns="http://www.w3.org/2000/svg">
<mask id="path-1-inside-1_2041_676" fill="white">
<path d="M56.974 3.0486C58.2466 1.47817 60.6422 1.47817 61.9147 3.0486L64.0227 5.65C65.0951 6.9735 67.0201 7.21668 68.388 6.20146L71.0766 4.20602C72.6997 3.00139 75.0201 3.59716 75.8621 5.43472L77.2568 8.47861C77.9664 10.0272 79.7704 10.7415 81.3478 10.0983L84.4482 8.83423C86.3199 8.07109 88.4193 9.22521 88.7778 11.2144L89.3718 14.5096C89.674 16.186 91.2437 17.3265 92.9314 17.0958L96.2488 16.6424C98.2515 16.3687 99.9979 18.0087 99.8505 20.0246L99.6063 23.3639C99.482 25.0628 100.719 26.5578 102.411 26.7541L105.737 27.14C107.745 27.373 109.028 29.3957 108.384 31.3116L107.317 34.4853C106.774 36.0999 107.601 37.8555 109.191 38.4665L112.316 39.6674C114.203 40.3923 114.943 42.6707 113.843 44.3663L112.02 47.1749C111.093 48.6038 111.456 50.5097 112.845 51.4969L115.573 53.4374C117.221 54.6088 117.371 56.9997 115.884 58.3683L113.42 60.6354C112.166 61.7888 112.044 63.7253 113.143 65.0267L115.304 67.5848C116.608 69.129 116.159 71.4822 114.378 72.438L111.428 74.0211C109.927 74.8265 109.327 76.6718 110.068 78.2057L111.524 81.2206C112.403 83.0407 111.383 85.2084 109.421 85.6911L106.169 86.4908C104.515 86.8977 103.475 88.5359 103.812 90.2058L104.472 93.4882C104.871 95.4697 103.344 97.3156 101.323 97.2951L97.975 97.2611C96.2716 97.2438 94.8572 98.572 94.7676 100.273L94.5913 103.617C94.4849 105.635 92.5467 107.043 90.5942 106.521L87.3598 105.655C85.7142 105.215 84.0139 106.15 83.504 107.775L82.5018 110.97C81.8967 112.898 79.6693 113.78 77.908 112.788L74.9905 111.146C73.5061 110.31 71.6268 110.792 70.7287 112.24L68.9635 115.085C67.8978 116.802 65.521 117.103 64.0617 115.704L61.6444 113.387C60.4145 112.209 58.4743 112.209 57.2444 113.387L54.8271 115.704C53.3677 117.103 50.991 116.802 49.9253 115.085L48.16 112.24C47.2619 110.792 45.3826 110.31 43.8983 111.146L40.9808 112.788C39.2195 113.78 36.9921 112.898 36.387 110.97L35.3848 107.775C34.8748 106.15 33.1746 105.215 31.529 105.655L28.2946 106.521C26.342 107.043 24.4039 105.635 24.2975 103.617L24.1212 100.273C24.0315 98.572 22.6171 97.2438 20.9138 97.2611L17.5657 97.2951C15.5445 97.3156 14.0175 95.4697 14.4164 93.4882L15.0772 90.2058C15.4133 88.5359 14.3737 86.8977 12.7195 86.4908L9.4682 85.6911C7.50542 85.2084 6.4854 83.0407 7.36455 81.2206L8.82085 78.2057C9.56177 76.6718 8.9622 74.8265 7.46118 74.0211L4.51088 72.438C2.72982 71.4822 2.28092 69.129 3.58509 67.5848L5.74542 65.0267C6.84452 63.7253 6.72269 61.7888 5.46914 60.6354L3.00524 58.3683C1.51781 56.9997 1.66823 54.6088 3.31547 53.4374L6.04409 51.4969C7.43232 50.5097 7.79588 48.6038 6.86856 47.1749L5.04587 44.3663C3.94553 42.6707 4.68583 40.3923 6.57263 39.6674L9.69809 38.4665C11.2882 37.8555 12.1143 36.0999 11.5715 34.4853L10.5046 31.3116C9.86046 29.3957 11.1441 27.373 13.1519 27.14L16.4778 26.7541C18.1699 26.5578 19.4067 25.0628 19.2825 23.3639L19.0383 20.0246C18.8909 18.0087 20.6373 16.3687 22.6399 16.6424L25.9573 17.0958C27.6451 17.3265 29.2148 16.186 29.517 14.5095L30.1109 11.2144C30.4695 9.22521 32.5688 8.07109 34.4405 8.83423L37.5409 10.0983C39.1183 10.7415 40.9223 10.0272 41.6319 8.47861L43.0267 5.43472C43.8687 3.59716 46.1891 3.00139 47.8122 4.20602L50.5008 6.20146C51.8687 7.21668 53.7937 6.9735 54.8661 5.65L56.974 3.0486Z"/>
</mask>
<path d="M56.974 3.0486C58.2466 1.47817 60.6422 1.47817 61.9147 3.0486L64.0227 5.65C65.0951 6.9735 67.0201 7.21668 68.388 6.20146L71.0766 4.20602C72.6997 3.00139 75.0201 3.59716 75.8621 5.43472L77.2568 8.47861C77.9664 10.0272 79.7704 10.7415 81.3478 10.0983L84.4482 8.83423C86.3199 8.07109 88.4193 9.22521 88.7778 11.2144L89.3718 14.5096C89.674 16.186 91.2437 17.3265 92.9314 17.0958L96.2488 16.6424C98.2515 16.3687 99.9979 18.0087 99.8505 20.0246L99.6063 23.3639C99.482 25.0628 100.719 26.5578 102.411 26.7541L105.737 27.14C107.745 27.373 109.028 29.3957 108.384 31.3116L107.317 34.4853C106.774 36.0999 107.601 37.8555 109.191 38.4665L112.316 39.6674C114.203 40.3923 114.943 42.6707 113.843 44.3663L112.02 47.1749C111.093 48.6038 111.456 50.5097 112.845 51.4969L115.573 53.4374C117.221 54.6088 117.371 56.9997 115.884 58.3683L113.42 60.6354C112.166 61.7888 112.044 63.7253 113.143 65.0267L115.304 67.5848C116.608 69.129 116.159 71.4822 114.378 72.438L111.428 74.0211C109.927 74.8265 109.327 76.6718 110.068 78.2057L111.524 81.2206C112.403 83.0407 111.383 85.2084 109.421 85.6911L106.169 86.4908C104.515 86.8977 103.475 88.5359 103.812 90.2058L104.472 93.4882C104.871 95.4697 103.344 97.3156 101.323 97.2951L97.975 97.2611C96.2716 97.2438 94.8572 98.572 94.7676 100.273L94.5913 103.617C94.4849 105.635 92.5467 107.043 90.5942 106.521L87.3598 105.655C85.7142 105.215 84.0139 106.15 83.504 107.775L82.5018 110.97C81.8967 112.898 79.6693 113.78 77.908 112.788L74.9905 111.146C73.5061 110.31 71.6268 110.792 70.7287 112.24L68.9635 115.085C67.8978 116.802 65.521 117.103 64.0617 115.704L61.6444 113.387C60.4145 112.209 58.4743 112.209 57.2444 113.387L54.8271 115.704C53.3677 117.103 50.991 116.802 49.9253 115.085L48.16 112.24C47.2619 110.792 45.3826 110.31 43.8983 111.146L40.9808 112.788C39.2195 113.78 36.9921 112.898 36.387 110.97L35.3848 107.775C34.8748 106.15 33.1746 105.215 31.529 105.655L28.2946 106.521C26.342 107.043 24.4039 105.635 24.2975 103.617L24.1212 100.273C24.0315 98.572 22.6171 97.2438 20.9138 97.2611L17.5657 97.2951C15.5445 97.3156 14.0175 95.4697 14.4164 93.4882L15.0772 90.2058C15.4133 88.5359 14.3737 86.8977 12.7195 86.4908L9.4682 85.6911C7.50542 85.2084 6.4854 83.0407 7.36455 81.2206L8.82085 78.2057C9.56177 76.6718 8.9622 74.8265 7.46118 74.0211L4.51088 72.438C2.72982 71.4822 2.28092 69.129 3.58509 67.5848L5.74542 65.0267C6.84452 63.7253 6.72269 61.7888 5.46914 60.6354L3.00524 58.3683C1.51781 56.9997 1.66823 54.6088 3.31547 53.4374L6.04409 51.4969C7.43232 50.5097 7.79588 48.6038 6.86856 47.1749L5.04587 44.3663C3.94553 42.6707 4.68583 40.3923 6.57263 39.6674L9.69809 38.4665C11.2882 37.8555 12.1143 36.0999 11.5715 34.4853L10.5046 31.3116C9.86046 29.3957 11.1441 27.373 13.1519 27.14L16.4778 26.7541C18.1699 26.5578 19.4067 25.0628 19.2825 23.3639L19.0383 20.0246C18.8909 18.0087 20.6373 16.3687 22.6399 16.6424L25.9573 17.0958C27.6451 17.3265 29.2148 16.186 29.517 14.5095L30.1109 11.2144C30.4695 9.22521 32.5688 8.07109 34.4405 8.83423L37.5409 10.0983C39.1183 10.7415 40.9223 10.0272 41.6319 8.47861L43.0267 5.43472C43.8687 3.59716 46.1891 3.00139 47.8122 4.20602L50.5008 6.20146C51.8687 7.21668 53.7937 6.9735 54.8661 5.65L56.974 3.0486Z" fill="url(#paint0_linear_2041_676)" stroke="black" stroke-width="1.232" mask="url(#path-1-inside-1_2041_676)"/>
<circle cx="59.4453" cy="59.4442" r="43.9609" fill="#1D1B25"/>
<path d="M83.0005 55.597C83.0005 58.201 83.0514 60.8075 82.9631 63.4099C82.9257 64.0994 82.647 64.7562 82.1728 65.2723C75.0132 72.4222 67.8254 79.5468 60.6092 86.6463C59.4912 87.7516 59.3825 87.7475 58.2322 86.6085C51.1309 79.5819 44.0248 72.5579 36.914 65.5368C36.5692 65.2264 36.2975 64.8479 36.1176 64.4269C35.9377 64.0058 35.8538 63.5522 35.8715 63.097C35.9181 58.0146 35.8884 52.9315 35.9181 47.8483C35.9801 47.3702 36.1027 46.9013 36.2832 46.4523C36.7733 46.6309 37.2353 46.8747 37.656 47.1765C39.4167 48.8575 41.1613 50.559 42.8287 52.3262C43.2665 52.817 43.528 53.4319 43.574 54.0787C43.6649 56.1316 43.5554 58.1961 43.6445 60.2507C43.6777 60.9022 43.9356 61.5241 44.3772 62.0171C49.0812 66.7308 53.8498 71.3845 58.5666 76.0874C59.273 76.792 59.7221 76.6869 60.3656 76.0472C65.0883 71.3508 69.8501 66.6897 74.5534 61.9744C74.9548 61.5033 75.1809 60.9153 75.1952 60.3049C75.2724 58.252 75.1816 56.1883 75.2614 54.132C75.2864 53.5205 75.5181 52.9337 75.921 52.4617C77.7166 50.5796 79.5877 48.7664 81.4647 46.9598C81.7965 46.7299 82.163 46.5513 82.5514 46.4301C82.7489 46.7727 82.8877 47.144 82.9623 47.5297C82.9971 50.2174 82.981 52.906 82.981 55.5946H82.9996" fill="url(#paint1_linear_2041_676)"/>
<path d="M59.5062 43.092C64.9726 43.092 70.4382 43.0813 75.9046 43.1084C76.4774 43.168 77.0421 43.2863 77.589 43.4615C77.3363 43.9996 77.0232 44.5091 76.6551 44.9807C74.9317 46.7529 73.1795 48.5012 71.3797 50.2011C71.0475 50.495 70.7882 50.8577 70.6212 51.2621C70.4542 51.6665 70.3838 52.1021 70.4153 52.5365C70.4747 54.6716 70.4806 56.8182 70.4042 58.955C70.3811 59.5662 70.1468 60.1523 69.7386 60.6195C66.6595 63.7491 63.5039 66.8097 60.4069 69.9236C59.6904 70.6438 59.1674 70.6044 58.4738 69.908C55.4023 66.8277 52.2764 63.7975 49.2312 60.6934C48.7991 60.1958 48.5506 59.5732 48.5249 58.9238C48.44 56.7887 48.4595 54.6437 48.5113 52.5045C48.54 52.0908 48.472 51.6761 48.3124 51.2913C48.1528 50.9065 47.9057 50.5614 47.5893 50.2815C45.7887 48.5841 44.0382 46.8325 42.3156 45.0604C41.915 44.5604 41.5672 44.0229 41.2773 43.4558C41.8746 43.2844 42.4876 43.1689 43.1077 43.1109C48.5741 43.0838 54.0414 43.092 59.5062 43.092Z" fill="url(#paint2_linear_2041_676)"/>
<path d="M28.8294 79.0486C29.0109 78.9221 29.2073 78.8567 29.4184 78.8523C29.4979 78.8525 29.6192 78.8671 29.7822 78.8963C29.94 78.9291 30.0607 78.96 30.1444 78.989C30.3772 79.0727 30.568 79.2213 30.7168 79.4349L31.6992 80.8446L33.5894 79.5273L34.1755 80.3683L29.3858 83.7061L27.8174 81.4554C27.6686 81.2418 27.5952 81.0113 27.5973 80.7639C27.5975 80.6845 27.6148 80.5614 27.6493 80.3945C27.6801 80.2224 27.7091 80.099 27.7365 80.0244C27.8136 79.8279 27.943 79.6663 28.1246 79.5398L28.8294 79.0486ZM29.4074 79.8952L28.7186 80.3752C28.6919 80.3938 28.6751 80.4095 28.6681 80.4223C28.5712 80.6247 28.5453 80.7697 28.5905 80.8572L28.6184 80.8972L29.6007 82.3069L30.8982 81.4027L29.9159 79.993C29.8898 79.9557 29.8251 79.9254 29.7217 79.9023C29.6184 79.8791 29.5261 79.872 29.4451 79.8809C29.4307 79.883 29.4181 79.8878 29.4074 79.8952Z" fill="white"/>
<path d="M24.9293 70.4739C25.138 70.4004 25.3447 70.3897 25.5493 70.4419C25.6259 70.4632 25.7388 70.5097 25.8882 70.5813C26.0315 70.6551 26.1396 70.7171 26.2124 70.7673C26.3019 70.8255 26.373 70.8902 26.4257 70.9613L28.2867 69.0745L28.6563 70.1242L26.843 71.9115L27.2158 72.9704L29.389 72.2053L29.7294 73.1722L24.2228 75.1109L23.3118 72.5234C23.2253 72.2778 23.2161 72.0361 23.2842 71.7982C23.3055 71.7217 23.3551 71.6077 23.4328 71.4561C23.5084 71.2984 23.5693 71.1873 23.6156 71.1227C23.7424 70.9538 23.9102 70.8327 24.1189 70.7592L24.9293 70.4739ZM25.2605 71.444L24.4685 71.7228C24.4379 71.7336 24.4174 71.7442 24.4073 71.7547C24.2599 71.9239 24.1963 72.0567 24.2164 72.1531L24.8032 73.8198L26.295 73.2946L25.7244 71.674C25.7092 71.631 25.6549 71.5846 25.5615 71.5347C25.468 71.4848 25.381 71.4533 25.3005 71.4402C25.2861 71.4384 25.2727 71.4397 25.2605 71.444Z" fill="white"/>
<path d="M25.5705 60.1071C25.7849 60.0944 25.9731 60.1354 26.1352 60.2301C26.2438 60.3019 26.3806 60.4112 26.5458 60.5579C26.7105 60.6981 26.8216 60.8121 26.879 60.9C27.0071 61.0815 27.0775 61.2795 27.0901 61.4939L27.1778 62.9752C27.1905 63.1896 27.1439 63.3944 27.0381 63.5897C26.9915 63.6838 26.8951 63.8166 26.7488 63.9883C26.5956 64.1538 26.4722 64.2719 26.3786 64.3427C26.2288 64.4559 26.0467 64.5188 25.8323 64.5315L22.782 64.712C22.5676 64.7247 22.3794 64.6836 22.2173 64.5889C22.116 64.5297 21.9828 64.4268 21.8176 64.2801C21.6456 64.1273 21.5309 64.0069 21.4735 63.919C21.3454 63.7375 21.275 63.5396 21.2623 63.3252L21.1747 61.8439C21.162 61.6295 21.2086 61.4246 21.3144 61.2293C21.3609 61.1353 21.4578 61.0089 21.6049 60.8503C21.7516 60.6851 21.8746 60.5605 21.9739 60.4764C22.1237 60.3632 22.3058 60.3003 22.5202 60.2876L25.5705 60.1071ZM22.7507 63.687L25.762 63.5088C25.7815 63.5076 25.7943 63.5036 25.8004 63.4967C25.9876 63.3553 26.1189 63.2041 26.1941 63.0431C26.1998 63.0298 26.2021 63.0133 26.2009 62.9938L26.1179 61.5905C26.1168 61.571 26.1125 61.555 26.1053 61.5424C26.0116 61.3914 25.8634 61.2568 25.6609 61.1384L25.6213 61.1309L22.61 61.3091C22.584 61.3106 22.5679 61.3149 22.5618 61.3217C22.3685 61.4701 22.234 61.6215 22.1584 61.7759C22.1527 61.7893 22.1504 61.8057 22.1515 61.8252L22.2346 63.2285C22.2361 63.2545 22.2403 63.2706 22.2472 63.2767C22.3405 63.4211 22.4919 63.5556 22.7014 63.6801L22.7507 63.687Z" fill="white"/>
<path d="M23.2861 50.5814L22.9549 52.1278L27.7087 53.146L27.4941 54.1483L22.7402 53.1302L22.409 54.6766L21.4544 54.4721L22.3315 50.3769L23.2861 50.5814Z" fill="white"/>
<path d="M31.144 43.9623L29.4757 47.232L24.2755 44.5788L25.9437 41.3091L26.8133 41.7528L25.611 44.1094L26.9241 44.7793L28.0421 42.588L28.9117 43.0316L27.7937 45.223L29.072 45.8752L30.2744 43.5186L31.144 43.9623Z" fill="white"/>
<path d="M35.6782 36.0957C35.746 36.2442 35.7922 36.3777 35.8169 36.4962C35.9486 37.1575 35.8731 37.6454 35.5901 37.9599L34.774 38.8672C34.6304 39.0268 34.4519 39.1377 34.2386 39.1996C34.1298 39.233 33.9651 39.2556 33.7445 39.2672C33.5239 39.2789 33.3579 39.2785 33.2467 39.2659C33.0609 39.2389 32.8882 39.1535 32.7285 39.0099L30.4422 36.9533C30.2874 36.814 30.1867 36.6534 30.1402 36.4716C30.1112 36.3579 30.0908 36.1907 30.0792 35.9702C30.067 35.7404 30.072 35.5742 30.0943 35.4716C30.1465 35.2385 30.2378 35.0493 30.3684 34.9041L31.1845 33.9969C31.4631 33.6872 31.9403 33.5606 32.6161 33.617C32.6809 33.6228 32.8113 33.6482 33.0072 33.6931L32.5518 34.6227C32.2422 34.6069 32.033 34.6156 31.9241 34.649C31.9149 34.6495 31.9038 34.657 31.8907 34.6715L31.1203 35.528L31.1015 35.5635C31.0561 35.7503 31.0646 35.9549 31.127 36.1774C31.1324 36.191 31.1568 36.2173 31.2003 36.2565L33.4068 38.2413C33.4455 38.2761 33.5384 38.2896 33.6854 38.2818C33.832 38.2649 33.9505 38.2402 34.041 38.2077C34.0502 38.2072 34.0678 38.1925 34.0939 38.1635L34.8382 37.336C34.8513 37.3215 34.8597 37.3073 34.8636 37.2932C34.8834 37.2323 34.8883 37.1491 34.8781 37.0436C34.8722 36.9333 34.8604 36.8395 34.8424 36.7621L34.8163 36.6598L35.6782 36.0957Z" fill="white"/>
<path d="M40.3584 27.7892L39.0333 28.6525L41.6873 32.7259L40.8284 33.2855L38.1745 29.2121L36.8494 30.0754L36.3165 29.2575L39.8255 26.9712L40.3584 27.7892Z" fill="white"/>
<path d="M50.5994 28.6343L47.1112 29.7774L45.2932 24.2297L48.7814 23.0866L49.0854 24.0143L46.5713 24.8382L47.0304 26.239L49.3682 25.4729L49.6722 26.4006L47.3344 27.1667L47.7813 28.5304L50.2953 27.7066L50.5994 28.6343Z" fill="white"/>
<path d="M59.3388 25.9837C59.3494 26.2112 59.3093 26.3988 59.2185 26.5463C59.1577 26.6404 59.0529 26.7691 58.9042 26.9324C58.7551 27.0892 58.6299 27.1992 58.5286 27.2626C58.326 27.3893 58.1337 27.4569 57.9517 27.4654L55.2797 27.5899L55.0079 21.7583L57.6799 21.6338C57.9075 21.6232 58.1083 21.6692 58.2825 21.7719C58.3828 21.8258 58.5113 21.9273 58.6681 22.0764C58.8249 22.2255 58.9415 22.3503 59.0178 22.451C59.1285 22.5892 59.1892 22.7721 59.1998 22.9996L59.3388 25.9837ZM56.2582 26.567L57.838 26.4934C57.877 26.4916 57.8996 26.4873 57.9058 26.4805C57.9817 26.4313 58.0694 26.3556 58.1688 26.2532C58.268 26.1443 58.3164 26.0639 58.314 26.0119L58.1772 23.0766C58.1763 23.0571 58.1723 23.041 58.1652 23.0283C58.0322 22.8325 57.8825 22.6961 57.7161 22.6192C57.7093 22.613 57.6799 22.6111 57.6279 22.6135L56.0773 22.6858L56.2582 26.567Z" fill="white"/>
<path d="M73.973 29.3316C73.8861 29.5421 73.7606 29.7016 73.5962 29.8098C73.5293 29.8526 73.4181 29.9088 73.2627 29.9785C73.1097 30.0421 72.9945 30.0826 72.9169 30.0999C72.6758 30.1553 72.4319 30.1321 72.1852 30.0304L69.6492 28.9845L71.8751 23.5875L74.4111 24.6335C74.6457 24.7302 74.8338 24.8888 74.9753 25.109C75.0181 25.176 75.0701 25.2889 75.1312 25.4479C75.1948 25.6009 75.2353 25.7161 75.2526 25.7937C75.2929 25.9863 75.2671 26.1939 75.1753 26.4165L74.8998 27.0843C74.7807 27.3731 74.5554 27.5865 74.224 27.7243C74.3619 28.0558 74.3725 28.3629 74.2559 28.6457L73.973 29.3316ZM73.9246 26.7349C73.9355 26.7254 73.9472 26.7055 73.9596 26.6755L74.2239 26.0347L74.2335 25.9858C74.2212 25.8963 74.1925 25.8035 74.1476 25.7075C74.1112 25.608 74.072 25.5496 74.0299 25.5322L72.4505 24.8809L71.8884 26.2436L73.4768 26.8987C73.5189 26.9161 73.5898 26.9066 73.6892 26.8702C73.7887 26.8338 73.8672 26.7887 73.9246 26.7349ZM73.0052 28.9641C73.0186 28.9485 73.0303 28.9287 73.0403 28.9046L73.3045 28.2639L73.3141 28.215C73.3018 28.1254 73.2732 28.0327 73.2283 27.9367C73.1894 27.8432 73.1489 27.7878 73.1068 27.7704L71.5274 27.1191L70.969 28.4728L72.5574 29.1279C72.5996 29.1453 72.6704 29.1358 72.7699 29.0994C72.8694 29.063 72.9478 29.0179 73.0052 28.9641Z" fill="white"/>
<path d="M84.2124 30.6114L80.6798 32.0538L79.1338 34.0792L78.319 33.4572L79.865 31.4318L80.3401 27.6557L81.2403 28.3428L80.9278 30.8922L83.3045 29.9184L84.2124 30.6114Z" fill="white"/>
<path d="M92.1247 44.4923C91.9286 44.5947 91.7255 44.6346 91.5155 44.6121C91.4367 44.6018 91.3183 44.5719 91.1602 44.5222C91.0079 44.4696 90.8922 44.4236 90.8129 44.3842C90.716 44.3393 90.6365 44.2854 90.5743 44.2224L89.0002 46.3546L88.4852 45.368L90.0262 43.3412L89.5066 42.346L87.4642 43.4121L86.9899 42.5034L92.1652 39.8019L93.4346 42.2338C93.5551 42.4646 93.5985 42.7025 93.5649 42.9476C93.5547 43.0264 93.5218 43.1463 93.4664 43.3074C93.414 43.4742 93.3695 43.5929 93.3329 43.6634C93.2313 43.8486 93.0825 43.9924 92.8863 44.0948L92.1247 44.4923ZM91.659 43.5791L92.4033 43.1906C92.4322 43.1755 92.4508 43.1621 92.4594 43.1503C92.5813 42.9619 92.6254 42.8214 92.5917 42.7288L91.7741 41.1624L90.3721 41.8942L91.1672 43.4174C91.1882 43.4578 91.2486 43.496 91.3482 43.5321C91.4478 43.5682 91.5384 43.587 91.6199 43.5885C91.6344 43.5883 91.6475 43.5851 91.659 43.5791Z" fill="white"/>
<path d="M91.4606 54.3718L90.6919 50.7825L96.4004 49.5599L97.1691 53.1492L96.2145 53.3536L95.6604 50.7667L94.219 51.0754L94.7342 53.481L93.7796 53.6854L93.2644 51.2799L91.8612 51.5804L92.4152 54.1674L91.4606 54.3718Z" fill="white"/>
<path d="M92.907 63.3357C92.7607 63.2632 92.6406 63.1888 92.5467 63.1124C92.0272 62.6825 91.7781 62.2563 91.7991 61.8338L91.8598 60.615C91.8705 60.4005 91.9391 60.2019 92.0655 60.0192C92.1288 59.9247 92.2424 59.8032 92.4062 59.655C92.57 59.5068 92.699 59.4024 92.7932 59.342C92.9544 59.2457 93.1423 59.203 93.3568 59.2137L96.4281 59.3667C96.6361 59.3771 96.8155 59.4381 96.9664 59.5499C97.0606 59.6198 97.1819 59.7366 97.3301 59.9004C97.4845 60.071 97.5854 60.2031 97.6329 60.2967C97.7396 60.5105 97.788 60.7149 97.7783 60.91L97.7176 62.1287C97.6968 62.5448 97.4065 62.9441 96.8466 63.3267C96.7926 63.3631 96.6755 63.4257 96.4951 63.5145L96.2619 62.5058C96.5121 62.3228 96.6689 62.184 96.7323 62.0894C96.7391 62.0832 96.743 62.0704 96.744 62.0509L96.8013 60.9004L96.7935 60.8609C96.7109 60.6873 96.5752 60.534 96.3864 60.4007C96.3737 60.3936 96.3381 60.3886 96.2796 60.3856L93.3155 60.2379C93.2635 60.2353 93.1829 60.2835 93.0737 60.3823C92.9707 60.4879 92.8943 60.5819 92.8446 60.6641C92.8378 60.6703 92.8334 60.6929 92.8315 60.7319L92.7761 61.8434C92.7751 61.8629 92.7776 61.8793 92.7834 61.8926C92.8065 61.9524 92.8553 62.02 92.9297 62.0954C93.0038 62.1773 93.0722 62.2426 93.135 62.2914L93.2198 62.3542L92.907 63.3357Z" fill="white"/>
<path d="M91.016 72.2103C90.8121 72.1427 90.6524 72.035 90.5369 71.887C90.4626 71.7801 90.3759 71.628 90.2767 71.4306C90.1755 71.2394 90.1145 71.0923 90.0938 70.9895C90.0419 70.7735 90.0498 70.5635 90.1173 70.3596L90.5839 68.951C90.6515 68.7472 90.7705 68.5741 90.9411 68.4317C91.0191 68.3616 91.1579 68.2739 91.3573 68.1685C91.5609 68.0714 91.7193 68.0073 91.8324 67.9763C92.0134 67.9265 92.2059 67.9354 92.4098 68.003L95.3104 68.9639C95.5143 69.0314 95.674 69.1391 95.7895 69.2871C95.8617 69.3796 95.9474 69.5245 96.0465 69.7219C96.1498 69.9275 96.2119 70.0818 96.2326 70.1846C96.2845 70.4007 96.2766 70.6106 96.2091 70.8145L95.7425 72.2231C95.6749 72.427 95.5559 72.6001 95.3853 72.7424C95.3073 72.8125 95.1705 72.8941 94.9752 72.987C94.7778 73.0862 94.6174 73.1565 94.494 73.1979C94.313 73.2476 94.1205 73.2387 93.9166 73.1712L91.016 72.2103ZM94.9602 69.9277L92.0967 68.9791C92.0781 68.973 92.0648 68.9719 92.0565 68.9761C91.8303 69.0382 91.6524 69.1302 91.523 69.2518C91.5127 69.2621 91.5045 69.2766 91.4984 69.2951L91.0563 70.6296C91.0502 70.6481 91.0481 70.6646 91.0502 70.679C91.0814 70.8539 91.1692 71.0338 91.3136 71.2187L91.3476 71.2403L94.2112 72.1889C94.2359 72.1971 94.2524 72.1991 94.2606 72.195C94.4951 72.1287 94.676 72.0378 94.8034 71.9223C94.8137 71.912 94.8219 71.8976 94.828 71.879L95.2701 70.5446C95.2783 70.5198 95.2803 70.5034 95.2762 70.4951C95.2429 70.3264 95.1521 70.1455 95.0035 69.9523L94.9602 69.9277Z" fill="white"/>
<path d="M85.4246 79.3967L86.0358 78.5019L90.3759 79.0194L87.1757 76.8333L87.7539 75.9868L92.5744 79.2798L91.9522 80.1907L87.5827 79.6296L90.8233 81.8433L90.2451 82.6897L85.4246 79.3967Z" fill="white"/>
<defs>
<linearGradient id="paint0_linear_2041_676" x1="59.4444" y1="1.87078" x2="59.4444" y2="116.588" gradientUnits="userSpaceOnUse">
<stop stop-color="#D0BCFF"/>
<stop offset="1" stop-color="#D2C0FF"/>
</linearGradient>
<linearGradient id="paint1_linear_2041_676" x1="59.4421" y1="46.4301" x2="59.4421" y2="87.4691" gradientUnits="userSpaceOnUse">
<stop stop-color="#E9DDFF"/>
<stop offset="1" stop-color="#CFBCFF"/>
</linearGradient>
<linearGradient id="paint2_linear_2041_676" x1="59.4332" y1="43.0899" x2="59.4332" y2="70.4472" gradientUnits="userSpaceOnUse">
<stop stop-color="#E9DDFF"/>
<stop offset="1" stop-color="#CFBCFF"/>
</linearGradient>
</defs>
</svg>
